<svg xmlns="http://www.w3.org/2000/svg" xmlns:xlink="http://www.w3.org/1999/xlink" width="500" zoomAndPan="magnify" viewBox="0 0 375 374.999991" height="500" preserveAspectRatio="xMidYMid meet" version="1.0"><defs><g/></defs><g fill="#75c7fb" fill-opacity="0.4"><g transform="translate(51.60994, 299.816989)"><g><path d="M 6.359375 0 C 5.085938 0 4.082031 -0.421875 3.34375 -1.265625 C 2.601562 -2.117188 2.335938 -3.285156 2.546875 -4.765625 L 28.640625 -217.984375 C 28.847656 -219.460938 29.429688 -220.625 30.390625 -221.46875 C 31.347656 -222.320312 32.460938 -222.75 33.734375 -222.75 L 82.734375 -222.75 C 84.003906 -222.75 85.007812 -222.320312 85.75 -221.46875 C 86.5 -220.625 86.769531 -219.460938 86.5625 -217.984375 L 66.5 -52.828125 C 66.082031 -51.765625 66.507812 -51.234375 67.78125 -51.234375 L 128.234375 -51.234375 C 129.722656 -51.234375 130.835938 -50.804688 131.578125 -49.953125 C 132.328125 -49.109375 132.59375 -47.941406 132.375 -46.453125 L 127.28125 -4.765625 C 126.644531 -1.585938 124.84375 0 121.875 0 Z M 6.359375 0 "/></g></g></g><g fill="#75c7fb" fill-opacity="1"><g transform="translate(37.546305, 285.753355)"><g><path d="M 6.359375 0 C 5.085938 0 4.082031 -0.421875 3.34375 -1.265625 C 2.601562 -2.117188 2.335938 -3.285156 2.546875 -4.765625 L 28.640625 -217.984375 C 28.847656 -219.460938 29.429688 -220.625 30.390625 -221.46875 C 31.347656 -222.320312 32.460938 -222.75 33.734375 -222.75 L 82.734375 -222.75 C 84.003906 -222.75 85.007812 -222.320312 85.75 -221.46875 C 86.5 -220.625 86.769531 -219.460938 86.5625 -217.984375 L 66.5 -52.828125 C 66.082031 -51.765625 66.507812 -51.234375 67.78125 -51.234375 L 128.234375 -51.234375 C 129.722656 -51.234375 130.835938 -50.804688 131.578125 -49.953125 C 132.328125 -49.109375 132.59375 -47.941406 132.375 -46.453125 L 127.28125 -4.765625 C 126.644531 -1.585938 124.84375 0 121.875 0 Z M 6.359375 0 "/></g></g></g><g fill="#75c7fb" fill-opacity="0.4"><g transform="translate(189.362588, 299.816989)"><g><path d="M 6.359375 0 C 5.085938 0 4.082031 -0.421875 3.34375 -1.265625 C 2.601562 -2.117188 2.335938 -3.285156 2.546875 -4.765625 L 28.640625 -217.984375 C 28.847656 -219.460938 29.429688 -220.625 30.390625 -221.46875 C 31.347656 -222.320312 32.460938 -222.75 33.734375 -222.75 L 94.515625 -222.75 C 113.390625 -222.75 128.394531 -217.816406 139.53125 -207.953125 C 150.675781 -198.085938 156.25 -184.882812 156.25 -168.34375 C 156.25 -166.425781 156.035156 -163.347656 155.609375 -159.109375 L 143.828125 -63.640625 C 142.347656 -51.128906 138.160156 -40.046875 131.265625 -30.390625 C 124.367188 -20.734375 115.351562 -13.253906 104.21875 -7.953125 C 93.082031 -2.648438 80.722656 0 67.140625 0 Z M 66.5 -52.828125 C 66.082031 -51.765625 66.507812 -51.234375 67.78125 -51.234375 L 72.234375 -51.546875 C 75.628906 -51.765625 78.648438 -53.359375 81.296875 -56.328125 C 83.953125 -59.296875 85.707031 -63.113281 86.5625 -67.78125 L 97.0625 -155.296875 L 97.375 -158.796875 C 97.375 -162.828125 96.414062 -165.953125 94.5 -168.171875 C 92.59375 -170.398438 90.050781 -171.515625 86.875 -171.515625 L 82.421875 -171.515625 C 81.359375 -171.515625 80.828125 -170.984375 80.828125 -169.921875 Z M 66.5 -52.828125 "/></g></g></g><g fill="#ff3847" fill-opacity="1"><g transform="translate(175.298953, 285.753355)"><g><path d="M 6.359375 0 C 5.085938 0 4.082031 -0.421875 3.34375 -1.265625 C 2.601562 -2.117188 2.335938 -3.285156 2.546875 -4.765625 L 28.640625 -217.984375 C 28.847656 -219.460938 29.429688 -220.625 30.390625 -221.46875 C 31.347656 -222.320312 32.460938 -222.75 33.734375 -222.75 L 94.515625 -222.75 C 113.390625 -222.75 128.394531 -217.816406 139.53125 -207.953125 C 150.675781 -198.085938 156.25 -184.882812 156.25 -168.34375 C 156.25 -166.425781 156.035156 -163.347656 155.609375 -159.109375 L 143.828125 -63.640625 C 142.347656 -51.128906 138.160156 -40.046875 131.265625 -30.390625 C 124.367188 -20.734375 115.351562 -13.253906 104.21875 -7.953125 C 93.082031 -2.648438 80.722656 0 67.140625 0 Z M 66.5 -52.828125 C 66.082031 -51.765625 66.507812 -51.234375 67.78125 -51.234375 L 72.234375 -51.546875 C 75.628906 -51.765625 78.648438 -53.359375 81.296875 -56.328125 C 83.953125 -59.296875 85.707031 -63.113281 86.5625 -67.78125 L 97.0625 -155.296875 L 97.375 -158.796875 C 97.375 -162.828125 96.414062 -165.953125 94.5 -168.171875 C 92.59375 -170.398438 90.050781 -171.515625 86.875 -171.515625 L 82.421875 -171.515625 C 81.359375 -171.515625 80.828125 -170.984375 80.828125 -169.921875 Z M 66.5 -52.828125 "/></g></g></g></svg>