<svg xmlns="http://www.w3.org/2000/svg" xmlns:xlink="http://www.w3.org/1999/xlink" width="500" zoomAndPan="magnify" viewBox="0 0 375 374.999991" height="500" preserveAspectRatio="xMidYMid meet" version="1.0"><defs><g/></defs><g fill="#d9d9d9" fill-opacity="1"><g transform="translate(0.0000045, 151.460103)"><g><path d="M 3.417969 0 L 25.851562 0 L 25.851562 -7.742188 L 11.957031 -7.742188 L 11.957031 -38.71875 L 3.417969 -38.71875 Z M 3.417969 0 "/></g></g></g><g fill="#d9d9d9" fill-opacity="1"><g transform="translate(27.838888, 151.460103)"><g><path d="M 33.308594 -19.417969 C 33.308594 -13.4375 27.898438 -7.972656 21.921875 -7.972656 C 15.941406 -7.972656 10.535156 -13.4375 10.535156 -19.417969 C 10.535156 -25.394531 15.941406 -30.804688 21.921875 -30.804688 C 27.898438 -30.804688 33.308594 -25.394531 33.308594 -19.417969 Z M 41.851562 -19.359375 C 41.851562 -30.0625 32.625 -39.289062 21.921875 -39.289062 C 11.21875 -39.289062 1.992188 -30.0625 1.992188 -19.359375 C 1.992188 -8.65625 11.21875 0.570312 21.921875 0.570312 C 32.625 0.570312 41.851562 -8.65625 41.851562 -19.359375 Z M 41.851562 -19.359375 "/></g></g></g><g fill="#d9d9d9" fill-opacity="1"><g transform="translate(71.675169, 151.460103)"><g><path d="M 3.417969 0 L 25.851562 0 L 25.851562 -7.742188 L 11.957031 -7.742188 L 11.957031 -38.71875 L 3.417969 -38.71875 Z M 3.417969 0 "/></g></g></g><g fill="#d9d9d9" fill-opacity="1"><g transform="translate(99.514053, 151.460103)"><g><path d="M 11.957031 0 L 11.957031 -38.71875 L 3.417969 -38.71875 L 3.417969 0 Z M 11.957031 0 "/></g></g></g><g fill="#d9d9d9" fill-opacity="1"><g transform="translate(114.885222, 151.460103)"><g><path d="M 33.820312 0 L 33.820312 -38.71875 L 25.28125 -38.71875 L 25.28125 -14.578125 L 11.957031 -38.71875 L 3.417969 -38.71875 L 3.417969 0 L 11.957031 0 L 11.957031 -24.140625 L 25.28125 0 Z M 33.820312 0 "/></g></g></g><g fill="#d9d9d9" fill-opacity="1"><g transform="translate(152.117597, 151.460103)"><g><path d="M 22.777344 -31.316406 C 26.535156 -31.316406 30.40625 -29.777344 32.285156 -25.679688 L 41.679688 -25.679688 C 39.003906 -33.707031 31.316406 -39.289062 22.777344 -39.289062 C 11.84375 -39.289062 2.847656 -30.292969 2.847656 -19.359375 C 2.847656 -8.425781 11.84375 0.570312 22.777344 0.570312 C 33.820312 0.570312 42.648438 -8.371094 42.648438 -19.359375 L 42.648438 -20.667969 L 23.574219 -20.667969 L 23.574219 -14.234375 L 33.421875 -14.234375 C 31.316406 -8.371094 26.535156 -7.175781 22.777344 -7.175781 C 16.625 -7.175781 11.5 -12.699219 11.5 -19.246094 C 11.5 -25.792969 16.625 -31.316406 22.777344 -31.316406 Z M 22.777344 -31.316406 "/></g></g></g><g fill="#d9d9d9" fill-opacity="1"><g transform="translate(196.750893, 151.460103)"><g/></g></g><g fill="#d9d9d9" fill-opacity="1"><g transform="translate(210.983457, 151.460103)"><g><path d="M 11.957031 0 L 11.957031 -38.71875 L 3.417969 -38.71875 L 3.417969 0 Z M 11.957031 0 "/></g></g></g><g fill="#d9d9d9" fill-opacity="1"><g transform="translate(226.354626, 151.460103)"><g><path d="M 33.820312 0 L 33.820312 -38.71875 L 25.28125 -38.71875 L 25.28125 -14.578125 L 11.957031 -38.71875 L 3.417969 -38.71875 L 3.417969 0 L 11.957031 0 L 11.957031 -24.140625 L 25.28125 0 Z M 33.820312 0 "/></g></g></g><g fill="#d9d9d9" fill-opacity="1"><g transform="translate(263.587001, 151.460103)"><g/></g></g><g fill="#d9d9d9" fill-opacity="1"><g transform="translate(277.819565, 151.460103)"><g><path d="M 19.871094 -30.976562 L 30.917969 -30.976562 L 30.917969 -38.71875 L 0.285156 -38.71875 L 0.285156 -30.976562 L 11.332031 -30.976562 L 11.332031 0 L 19.871094 0 Z M 19.871094 -30.976562 "/></g></g></g><g fill="#d9d9d9" fill-opacity="1"><g transform="translate(309.017344, 151.460103)"><g><path d="M 24.710938 -38.71875 L 24.710938 -23.289062 L 11.957031 -23.289062 L 11.957031 -38.71875 L 3.417969 -38.71875 L 3.417969 0 L 11.957031 0 L 11.957031 -15.542969 L 24.710938 -15.542969 L 24.710938 0 L 33.820312 0 L 33.820312 -38.71875 Z M 24.710938 -38.71875 "/></g></g></g><g fill="#d9d9d9" fill-opacity="1"><g transform="translate(346.249736, 151.460103)"><g><path d="M 25.851562 -7.742188 L 11.957031 -7.742188 L 11.957031 -15.542969 L 25.28125 -15.542969 L 25.28125 -23.289062 L 11.957031 -23.289062 L 11.957031 -30.976562 L 25.851562 -30.976562 L 25.851562 -38.71875 L 3.417969 -38.71875 L 3.417969 0 L 25.851562 0 Z M 25.851562 -7.742188 "/></g></g></g><g fill="#d9d9d9" fill-opacity="1"><g transform="translate(0.0000045, 215.054781)"><g><path d="M 11.84375 -7.859375 L 11.84375 -30.804688 L 14.40625 -30.804688 C 21.011719 -30.804688 25.453125 -25.792969 25.453125 -19.359375 C 25.453125 -12.925781 20.953125 -7.859375 14.40625 -7.859375 Z M 3.417969 -38.71875 L 3.417969 0 L 14.917969 0 C 25.90625 0 34.164062 -8.425781 34.164062 -19.359375 C 34.164062 -30.292969 25.851562 -38.71875 14.917969 -38.71875 Z M 3.417969 -38.71875 "/></g></g></g><g fill="#d9d9d9" fill-opacity="1"><g transform="translate(36.150692, 215.054781)"><g><path d="M 25.851562 -7.742188 L 11.957031 -7.742188 L 11.957031 -15.542969 L 25.28125 -15.542969 L 25.28125 -23.289062 L 11.957031 -23.289062 L 11.957031 -30.976562 L 25.851562 -30.976562 L 25.851562 -38.71875 L 3.417969 -38.71875 L 3.417969 0 L 25.851562 0 Z M 25.851562 -7.742188 "/></g></g></g><g fill="#d9d9d9" fill-opacity="1"><g transform="translate(65.412836, 215.054781)"><g><path d="M 25.851562 -7.742188 L 11.957031 -7.742188 L 11.957031 -15.542969 L 25.28125 -15.542969 L 25.28125 -23.289062 L 11.957031 -23.289062 L 11.957031 -30.976562 L 25.851562 -30.976562 L 25.851562 -38.71875 L 3.417969 -38.71875 L 3.417969 0 L 25.851562 0 Z M 25.851562 -7.742188 "/></g></g></g><g fill="#d9d9d9" fill-opacity="1"><g transform="translate(94.67498, 215.054781)"><g><path d="M 11.957031 -13.835938 L 17.9375 -13.835938 C 24.199219 -13.835938 29.777344 -18.449219 29.777344 -26.304688 C 29.777344 -33.652344 24.199219 -38.71875 17.9375 -38.71875 L 3.417969 -38.71875 L 3.417969 0 L 11.957031 0 Z M 16.511719 -32 C 19.019531 -32 21.636719 -29.835938 21.636719 -26.304688 C 21.636719 -22.605469 19.019531 -20.554688 16.511719 -20.554688 L 11.957031 -20.554688 L 11.957031 -32 Z M 16.511719 -32 "/></g></g></g></svg>