<svg xmlns="http://www.w3.org/2000/svg" xmlns:xlink="http://www.w3.org/1999/xlink" width="500" zoomAndPan="magnify" viewBox="0 0 375 374.999991" height="500" preserveAspectRatio="xMidYMid meet" version="1.0"><defs><g/></defs><rect x="-37.5" width="450" fill="#ffffff" y="-37.499999" height="449.999989" fill-opacity="1"/><rect x="-37.5" width="450" fill="#ffffff" y="-37.499999" height="449.999989" fill-opacity="1"/><rect x="-37.5" width="450" fill="#004aad" y="-37.499999" height="449.999989" fill-opacity="1"/><g fill="#75c7fb" fill-opacity="0.4"><g transform="translate(54.967977, 142.270625)"><g><path d="M 2.015625 0 C 1.609375 0 1.285156 -0.128906 1.046875 -0.390625 C 0.816406 -0.660156 0.734375 -1.03125 0.796875 -1.5 L 9.03125 -68.78125 C 9.101562 -69.25 9.289062 -69.613281 9.59375 -69.875 C 9.894531 -70.144531 10.242188 -70.28125 10.640625 -70.28125 L 26.109375 -70.28125 C 26.503906 -70.28125 26.816406 -70.144531 27.046875 -69.875 C 27.285156 -69.613281 27.375 -69.25 27.3125 -68.78125 L 20.984375 -16.671875 C 20.847656 -16.335938 20.984375 -16.171875 21.390625 -16.171875 L 40.46875 -16.171875 C 40.9375 -16.171875 41.285156 -16.035156 41.515625 -15.765625 C 41.753906 -15.492188 41.835938 -15.125 41.765625 -14.65625 L 40.15625 -1.5 C 39.957031 -0.5 39.390625 0 38.453125 0 Z M 2.015625 0 "/></g></g></g><g fill="#75c7fb" fill-opacity="0.4"><g transform="translate(98.44385, 142.270625)"><g><path d="M 21.484375 0.796875 C 15.523438 0.796875 10.835938 -0.820312 7.421875 -4.0625 C 4.015625 -7.3125 2.3125 -11.710938 2.3125 -17.265625 C 2.3125 -17.941406 2.378906 -19.082031 2.515625 -20.6875 L 6.125 -49.59375 C 6.925781 -56.15625 9.519531 -61.378906 13.90625 -65.265625 C 18.289062 -69.148438 23.765625 -71.09375 30.328125 -71.09375 C 36.210938 -71.09375 40.878906 -69.46875 44.328125 -66.21875 C 47.773438 -62.96875 49.5 -58.566406 49.5 -53.015625 C 49.5 -52.347656 49.429688 -51.207031 49.296875 -49.59375 L 45.78125 -20.6875 C 44.976562 -14.125 42.367188 -8.898438 37.953125 -5.015625 C 33.535156 -1.140625 28.046875 0.796875 21.484375 0.796875 Z M 23.5 -15.359375 C 24.5 -15.359375 25.347656 -15.757812 26.046875 -16.5625 C 26.753906 -17.363281 27.207031 -18.46875 27.40625 -19.875 L 31.125 -50.40625 C 31.257812 -51.8125 31.09375 -52.914062 30.625 -53.71875 C 30.15625 -54.519531 29.421875 -54.921875 28.421875 -54.921875 C 27.347656 -54.921875 26.457031 -54.519531 25.75 -53.71875 C 25.050781 -52.914062 24.632812 -51.8125 24.5 -50.40625 L 20.78125 -19.875 C 20.71875 -19.613281 20.6875 -19.25 20.6875 -18.78125 C 20.6875 -17.707031 20.9375 -16.867188 21.4375 -16.265625 C 21.9375 -15.660156 22.625 -15.359375 23.5 -15.359375 Z M 23.5 -15.359375 "/></g></g></g><g fill="#75c7fb" fill-opacity="0.4"><g transform="translate(145.534339, 142.270625)"><g><path d="M 2.015625 0 C 1.609375 0 1.285156 -0.128906 1.046875 -0.390625 C 0.816406 -0.660156 0.734375 -1.03125 0.796875 -1.5 L 9.03125 -68.78125 C 9.101562 -69.25 9.289062 -69.613281 9.59375 -69.875 C 9.894531 -70.144531 10.242188 -70.28125 10.640625 -70.28125 L 26.109375 -70.28125 C 26.503906 -70.28125 26.816406 -70.144531 27.046875 -69.875 C 27.285156 -69.613281 27.375 -69.25 27.3125 -68.78125 L 20.984375 -16.671875 C 20.847656 -16.335938 20.984375 -16.171875 21.390625 -16.171875 L 40.46875 -16.171875 C 40.9375 -16.171875 41.285156 -16.035156 41.515625 -15.765625 C 41.753906 -15.492188 41.835938 -15.125 41.765625 -14.65625 L 40.15625 -1.5 C 39.957031 -0.5 39.390625 0 38.453125 0 Z M 2.015625 0 "/></g></g></g><g fill="#75c7fb" fill-opacity="0.4"><g transform="translate(189.010212, 142.270625)"><g><path d="M 2.015625 0 C 1.609375 0 1.285156 -0.128906 1.046875 -0.390625 C 0.816406 -0.660156 0.734375 -1.03125 0.796875 -1.5 L 9.03125 -68.78125 C 9.101562 -69.25 9.289062 -69.613281 9.59375 -69.875 C 9.894531 -70.144531 10.242188 -70.28125 10.640625 -70.28125 L 26.109375 -70.28125 C 26.503906 -70.28125 26.816406 -70.144531 27.046875 -69.875 C 27.285156 -69.613281 27.375 -69.25 27.3125 -68.78125 L 19.078125 -1.5 C 19.015625 -1.03125 18.832031 -0.660156 18.53125 -0.390625 C 18.226562 -0.128906 17.875 0 17.46875 0 Z M 2.015625 0 "/></g></g></g><g fill="#75c7fb" fill-opacity="0.4"><g transform="translate(212.404852, 142.270625)"><g><path d="M 37.25 -68.78125 C 37.3125 -69.25 37.492188 -69.613281 37.796875 -69.875 C 38.097656 -70.144531 38.484375 -70.28125 38.953125 -70.28125 L 54.125 -70.28125 C 54.59375 -70.28125 54.941406 -70.144531 55.171875 -69.875 C 55.410156 -69.613281 55.492188 -69.25 55.421875 -68.78125 L 47.09375 -1.5 C 47.019531 -1.03125 46.847656 -0.660156 46.578125 -0.390625 C 46.316406 -0.128906 45.953125 0 45.484375 0 L 28.109375 0 C 27.304688 0 26.835938 -0.4375 26.703125 -1.3125 L 22.890625 -32.125 C 22.890625 -32.332031 22.820312 -32.4375 22.6875 -32.4375 C 22.550781 -32.4375 22.484375 -32.332031 22.484375 -32.125 L 18.875 -1.5 C 18.8125 -1.03125 18.628906 -0.660156 18.328125 -0.390625 C 18.023438 -0.128906 17.671875 0 17.265625 0 L 2.015625 0 C 1.609375 0 1.285156 -0.128906 1.046875 -0.390625 C 0.816406 -0.660156 0.734375 -1.03125 0.796875 -1.5 L 9.03125 -68.78125 C 9.101562 -69.25 9.289062 -69.613281 9.59375 -69.875 C 9.894531 -70.144531 10.242188 -70.28125 10.640625 -70.28125 L 27.8125 -70.28125 C 28.613281 -70.28125 29.082031 -69.847656 29.21875 -68.984375 L 33.140625 -37.953125 C 33.140625 -37.753906 33.203125 -37.6875 33.328125 -37.75 C 33.460938 -37.820312 33.566406 -37.921875 33.640625 -38.046875 Z M 37.25 -68.78125 "/></g></g></g><g fill="#75c7fb" fill-opacity="0.4"><g transform="translate(263.812797, 142.270625)"><g><path d="M 21.1875 0.796875 C 15.289062 0.796875 10.648438 -0.753906 7.265625 -3.859375 C 3.890625 -6.972656 2.203125 -11.207031 2.203125 -16.5625 C 2.203125 -17.164062 2.269531 -18.203125 2.40625 -19.671875 L 6.21875 -50.703125 C 6.957031 -56.929688 9.5 -61.882812 13.84375 -65.5625 C 18.195312 -69.25 23.585938 -71.09375 30.015625 -71.09375 C 35.835938 -71.09375 40.472656 -69.519531 43.921875 -66.375 C 47.367188 -63.226562 49.09375 -58.972656 49.09375 -53.609375 C 49.09375 -52.878906 49.023438 -51.84375 48.890625 -50.5 L 48.5 -47.1875 C 48.289062 -46.1875 47.722656 -45.6875 46.796875 -45.6875 L 31.421875 -45.6875 C 30.953125 -45.6875 30.597656 -45.816406 30.359375 -46.078125 C 30.128906 -46.347656 30.050781 -46.71875 30.125 -47.1875 L 30.625 -50.703125 C 30.757812 -51.972656 30.59375 -52.992188 30.125 -53.765625 C 29.65625 -54.535156 28.984375 -54.921875 28.109375 -54.921875 C 27.171875 -54.921875 26.367188 -54.535156 25.703125 -53.765625 C 25.035156 -52.992188 24.632812 -51.972656 24.5 -50.703125 L 20.6875 -19.578125 C 20.550781 -18.304688 20.71875 -17.285156 21.1875 -16.515625 C 21.65625 -15.742188 22.320312 -15.359375 23.1875 -15.359375 C 24.125 -15.359375 24.910156 -15.742188 25.546875 -16.515625 C 26.179688 -17.285156 26.566406 -18.304688 26.703125 -19.578125 L 27.40625 -24.59375 C 27.40625 -24.925781 27.238281 -25.09375 26.90625 -25.09375 L 26.109375 -25.09375 C 25.640625 -25.09375 25.285156 -25.226562 25.046875 -25.5 C 24.816406 -25.769531 24.734375 -26.140625 24.796875 -26.609375 L 26.203125 -38.15625 C 26.273438 -38.625 26.457031 -38.988281 26.75 -39.25 C 27.050781 -39.519531 27.40625 -39.65625 27.8125 -39.65625 L 46.09375 -39.65625 C 46.5625 -39.65625 46.910156 -39.519531 47.140625 -39.25 C 47.367188 -38.988281 47.453125 -38.625 47.390625 -38.15625 L 45.078125 -19.671875 C 44.347656 -13.453125 41.789062 -8.484375 37.40625 -4.765625 C 33.019531 -1.054688 27.613281 0.796875 21.1875 0.796875 Z M 21.1875 0.796875 "/></g></g></g><g fill="#75c7fb" fill-opacity="1"><g transform="translate(50.530242, 137.832889)"><g><path d="M 2.015625 0 C 1.609375 0 1.285156 -0.128906 1.046875 -0.390625 C 0.816406 -0.660156 0.734375 -1.03125 0.796875 -1.5 L 9.03125 -68.78125 C 9.101562 -69.25 9.289062 -69.613281 9.59375 -69.875 C 9.894531 -70.144531 10.242188 -70.28125 10.640625 -70.28125 L 26.109375 -70.28125 C 26.503906 -70.28125 26.816406 -70.144531 27.046875 -69.875 C 27.285156 -69.613281 27.375 -69.25 27.3125 -68.78125 L 20.984375 -16.671875 C 20.847656 -16.335938 20.984375 -16.171875 21.390625 -16.171875 L 40.46875 -16.171875 C 40.9375 -16.171875 41.285156 -16.035156 41.515625 -15.765625 C 41.753906 -15.492188 41.835938 -15.125 41.765625 -14.65625 L 40.15625 -1.5 C 39.957031 -0.5 39.390625 0 38.453125 0 Z M 2.015625 0 "/></g></g></g><g fill="#75c7fb" fill-opacity="1"><g transform="translate(94.006115, 137.832889)"><g><path d="M 21.484375 0.796875 C 15.523438 0.796875 10.835938 -0.820312 7.421875 -4.0625 C 4.015625 -7.3125 2.3125 -11.710938 2.3125 -17.265625 C 2.3125 -17.941406 2.378906 -19.082031 2.515625 -20.6875 L 6.125 -49.59375 C 6.925781 -56.15625 9.519531 -61.378906 13.90625 -65.265625 C 18.289062 -69.148438 23.765625 -71.09375 30.328125 -71.09375 C 36.210938 -71.09375 40.878906 -69.46875 44.328125 -66.21875 C 47.773438 -62.96875 49.5 -58.566406 49.5 -53.015625 C 49.5 -52.347656 49.429688 -51.207031 49.296875 -49.59375 L 45.78125 -20.6875 C 44.976562 -14.125 42.367188 -8.898438 37.953125 -5.015625 C 33.535156 -1.140625 28.046875 0.796875 21.484375 0.796875 Z M 23.5 -15.359375 C 24.5 -15.359375 25.347656 -15.757812 26.046875 -16.5625 C 26.753906 -17.363281 27.207031 -18.46875 27.40625 -19.875 L 31.125 -50.40625 C 31.257812 -51.8125 31.09375 -52.914062 30.625 -53.71875 C 30.15625 -54.519531 29.421875 -54.921875 28.421875 -54.921875 C 27.347656 -54.921875 26.457031 -54.519531 25.75 -53.71875 C 25.050781 -52.914062 24.632812 -51.8125 24.5 -50.40625 L 20.78125 -19.875 C 20.71875 -19.613281 20.6875 -19.25 20.6875 -18.78125 C 20.6875 -17.707031 20.9375 -16.867188 21.4375 -16.265625 C 21.9375 -15.660156 22.625 -15.359375 23.5 -15.359375 Z M 23.5 -15.359375 "/></g></g></g><g fill="#75c7fb" fill-opacity="1"><g transform="translate(141.096604, 137.832889)"><g><path d="M 2.015625 0 C 1.609375 0 1.285156 -0.128906 1.046875 -0.390625 C 0.816406 -0.660156 0.734375 -1.03125 0.796875 -1.5 L 9.03125 -68.78125 C 9.101562 -69.25 9.289062 -69.613281 9.59375 -69.875 C 9.894531 -70.144531 10.242188 -70.28125 10.640625 -70.28125 L 26.109375 -70.28125 C 26.503906 -70.28125 26.816406 -70.144531 27.046875 -69.875 C 27.285156 -69.613281 27.375 -69.25 27.3125 -68.78125 L 20.984375 -16.671875 C 20.847656 -16.335938 20.984375 -16.171875 21.390625 -16.171875 L 40.46875 -16.171875 C 40.9375 -16.171875 41.285156 -16.035156 41.515625 -15.765625 C 41.753906 -15.492188 41.835938 -15.125 41.765625 -14.65625 L 40.15625 -1.5 C 39.957031 -0.5 39.390625 0 38.453125 0 Z M 2.015625 0 "/></g></g></g><g fill="#75c7fb" fill-opacity="1"><g transform="translate(184.572476, 137.832889)"><g><path d="M 2.015625 0 C 1.609375 0 1.285156 -0.128906 1.046875 -0.390625 C 0.816406 -0.660156 0.734375 -1.03125 0.796875 -1.5 L 9.03125 -68.78125 C 9.101562 -69.25 9.289062 -69.613281 9.59375 -69.875 C 9.894531 -70.144531 10.242188 -70.28125 10.640625 -70.28125 L 26.109375 -70.28125 C 26.503906 -70.28125 26.816406 -70.144531 27.046875 -69.875 C 27.285156 -69.613281 27.375 -69.25 27.3125 -68.78125 L 19.078125 -1.5 C 19.015625 -1.03125 18.832031 -0.660156 18.53125 -0.390625 C 18.226562 -0.128906 17.875 0 17.46875 0 Z M 2.015625 0 "/></g></g></g><g fill="#75c7fb" fill-opacity="1"><g transform="translate(207.967117, 137.832889)"><g><path d="M 37.25 -68.78125 C 37.3125 -69.25 37.492188 -69.613281 37.796875 -69.875 C 38.097656 -70.144531 38.484375 -70.28125 38.953125 -70.28125 L 54.125 -70.28125 C 54.59375 -70.28125 54.941406 -70.144531 55.171875 -69.875 C 55.410156 -69.613281 55.492188 -69.25 55.421875 -68.78125 L 47.09375 -1.5 C 47.019531 -1.03125 46.847656 -0.660156 46.578125 -0.390625 C 46.316406 -0.128906 45.953125 0 45.484375 0 L 28.109375 0 C 27.304688 0 26.835938 -0.4375 26.703125 -1.3125 L 22.890625 -32.125 C 22.890625 -32.332031 22.820312 -32.4375 22.6875 -32.4375 C 22.550781 -32.4375 22.484375 -32.332031 22.484375 -32.125 L 18.875 -1.5 C 18.8125 -1.03125 18.628906 -0.660156 18.328125 -0.390625 C 18.023438 -0.128906 17.671875 0 17.265625 0 L 2.015625 0 C 1.609375 0 1.285156 -0.128906 1.046875 -0.390625 C 0.816406 -0.660156 0.734375 -1.03125 0.796875 -1.5 L 9.03125 -68.78125 C 9.101562 -69.25 9.289062 -69.613281 9.59375 -69.875 C 9.894531 -70.144531 10.242188 -70.28125 10.640625 -70.28125 L 27.8125 -70.28125 C 28.613281 -70.28125 29.082031 -69.847656 29.21875 -68.984375 L 33.140625 -37.953125 C 33.140625 -37.753906 33.203125 -37.6875 33.328125 -37.75 C 33.460938 -37.820312 33.566406 -37.921875 33.640625 -38.046875 Z M 37.25 -68.78125 "/></g></g></g><g fill="#75c7fb" fill-opacity="1"><g transform="translate(259.375061, 137.832889)"><g><path d="M 21.1875 0.796875 C 15.289062 0.796875 10.648438 -0.753906 7.265625 -3.859375 C 3.890625 -6.972656 2.203125 -11.207031 2.203125 -16.5625 C 2.203125 -17.164062 2.269531 -18.203125 2.40625 -19.671875 L 6.21875 -50.703125 C 6.957031 -56.929688 9.5 -61.882812 13.84375 -65.5625 C 18.195312 -69.25 23.585938 -71.09375 30.015625 -71.09375 C 35.835938 -71.09375 40.472656 -69.519531 43.921875 -66.375 C 47.367188 -63.226562 49.09375 -58.972656 49.09375 -53.609375 C 49.09375 -52.878906 49.023438 -51.84375 48.890625 -50.5 L 48.5 -47.1875 C 48.289062 -46.1875 47.722656 -45.6875 46.796875 -45.6875 L 31.421875 -45.6875 C 30.953125 -45.6875 30.597656 -45.816406 30.359375 -46.078125 C 30.128906 -46.347656 30.050781 -46.71875 30.125 -47.1875 L 30.625 -50.703125 C 30.757812 -51.972656 30.59375 -52.992188 30.125 -53.765625 C 29.65625 -54.535156 28.984375 -54.921875 28.109375 -54.921875 C 27.171875 -54.921875 26.367188 -54.535156 25.703125 -53.765625 C 25.035156 -52.992188 24.632812 -51.972656 24.5 -50.703125 L 20.6875 -19.578125 C 20.550781 -18.304688 20.71875 -17.285156 21.1875 -16.515625 C 21.65625 -15.742188 22.320312 -15.359375 23.1875 -15.359375 C 24.125 -15.359375 24.910156 -15.742188 25.546875 -16.515625 C 26.179688 -17.285156 26.566406 -18.304688 26.703125 -19.578125 L 27.40625 -24.59375 C 27.40625 -24.925781 27.238281 -25.09375 26.90625 -25.09375 L 26.109375 -25.09375 C 25.640625 -25.09375 25.285156 -25.226562 25.046875 -25.5 C 24.816406 -25.769531 24.734375 -26.140625 24.796875 -26.609375 L 26.203125 -38.15625 C 26.273438 -38.625 26.457031 -38.988281 26.75 -39.25 C 27.050781 -39.519531 27.40625 -39.65625 27.8125 -39.65625 L 46.09375 -39.65625 C 46.5625 -39.65625 46.910156 -39.519531 47.140625 -39.25 C 47.367188 -38.988281 47.453125 -38.625 47.390625 -38.15625 L 45.078125 -19.671875 C 44.347656 -13.453125 41.789062 -8.484375 37.40625 -4.765625 C 33.019531 -1.054688 27.613281 0.796875 21.1875 0.796875 Z M 21.1875 0.796875 "/></g></g></g><g fill="#75c7fb" fill-opacity="0.4"><g transform="translate(310.389836, 142.270625)"><g/></g></g><g fill="#75c7fb" fill-opacity="1"><g transform="translate(305.9521, 137.832889)"><g/></g></g><g fill="#75c7fb" fill-opacity="0.4"><g transform="translate(65.960164, 222.52062)"><g><path d="M 2.015625 0 C 1.609375 0 1.285156 -0.128906 1.046875 -0.390625 C 0.816406 -0.660156 0.734375 -1.03125 0.796875 -1.5 L 9.03125 -68.78125 C 9.101562 -69.25 9.289062 -69.613281 9.59375 -69.875 C 9.894531 -70.144531 10.242188 -70.28125 10.640625 -70.28125 L 26.109375 -70.28125 C 26.503906 -70.28125 26.816406 -70.144531 27.046875 -69.875 C 27.285156 -69.613281 27.375 -69.25 27.3125 -68.78125 L 19.078125 -1.5 C 19.015625 -1.03125 18.832031 -0.660156 18.53125 -0.390625 C 18.226562 -0.128906 17.875 0 17.46875 0 Z M 2.015625 0 "/></g></g></g><g fill="#75c7fb" fill-opacity="0.4"><g transform="translate(89.354805, 222.52062)"><g><path d="M 37.25 -68.78125 C 37.3125 -69.25 37.492188 -69.613281 37.796875 -69.875 C 38.097656 -70.144531 38.484375 -70.28125 38.953125 -70.28125 L 54.125 -70.28125 C 54.59375 -70.28125 54.941406 -70.144531 55.171875 -69.875 C 55.410156 -69.613281 55.492188 -69.25 55.421875 -68.78125 L 47.09375 -1.5 C 47.019531 -1.03125 46.847656 -0.660156 46.578125 -0.390625 C 46.316406 -0.128906 45.953125 0 45.484375 0 L 28.109375 0 C 27.304688 0 26.835938 -0.4375 26.703125 -1.3125 L 22.890625 -32.125 C 22.890625 -32.332031 22.820312 -32.4375 22.6875 -32.4375 C 22.550781 -32.4375 22.484375 -32.332031 22.484375 -32.125 L 18.875 -1.5 C 18.8125 -1.03125 18.628906 -0.660156 18.328125 -0.390625 C 18.023438 -0.128906 17.671875 0 17.265625 0 L 2.015625 0 C 1.609375 0 1.285156 -0.128906 1.046875 -0.390625 C 0.816406 -0.660156 0.734375 -1.03125 0.796875 -1.5 L 9.03125 -68.78125 C 9.101562 -69.25 9.289062 -69.613281 9.59375 -69.875 C 9.894531 -70.144531 10.242188 -70.28125 10.640625 -70.28125 L 27.8125 -70.28125 C 28.613281 -70.28125 29.082031 -69.847656 29.21875 -68.984375 L 33.140625 -37.953125 C 33.140625 -37.753906 33.203125 -37.6875 33.328125 -37.75 C 33.460938 -37.820312 33.566406 -37.921875 33.640625 -38.046875 Z M 37.25 -68.78125 "/></g></g></g><g fill="#75c7fb" fill-opacity="0.4"><g transform="translate(140.76276, 222.52062)"><g/></g></g><g fill="#75c7fb" fill-opacity="0.4"><g transform="translate(160.241553, 222.52062)"><g><path d="M 52.109375 -70.28125 C 52.515625 -70.28125 52.832031 -70.144531 53.0625 -69.875 C 53.300781 -69.613281 53.382812 -69.25 53.3125 -68.78125 L 51.703125 -55.625 C 51.640625 -55.15625 51.472656 -54.785156 51.203125 -54.515625 C 50.941406 -54.253906 50.578125 -54.125 50.109375 -54.125 L 38.453125 -54.125 C 38.117188 -54.125 37.953125 -53.953125 37.953125 -53.609375 L 31.53125 -1.5 C 31.457031 -1.03125 31.285156 -0.660156 31.015625 -0.390625 C 30.753906 -0.128906 30.390625 0 29.921875 0 L 14.5625 0 C 14.09375 0 13.738281 -0.128906 13.5 -0.390625 C 13.269531 -0.660156 13.1875 -1.03125 13.25 -1.5 L 19.671875 -53.609375 C 19.671875 -53.953125 19.503906 -54.125 19.171875 -54.125 L 7.9375 -54.125 C 7.46875 -54.125 7.113281 -54.253906 6.875 -54.515625 C 6.644531 -54.785156 6.5625 -55.15625 6.625 -55.625 L 8.234375 -68.78125 C 8.296875 -69.25 8.476562 -69.613281 8.78125 -69.875 C 9.082031 -70.144531 9.46875 -70.28125 9.9375 -70.28125 Z M 52.109375 -70.28125 "/></g></g></g><g fill="#75c7fb" fill-opacity="0.4"><g transform="translate(208.838141, 222.52062)"><g><path d="M 33.03125 -68.78125 C 33.101562 -69.25 33.269531 -69.613281 33.53125 -69.875 C 33.800781 -70.144531 34.171875 -70.28125 34.640625 -70.28125 L 50 -70.28125 C 50.46875 -70.28125 50.816406 -70.144531 51.046875 -69.875 C 51.285156 -69.613281 51.375 -69.25 51.3125 -68.78125 L 43.078125 -1.5 C 43.003906 -1.03125 42.816406 -0.660156 42.515625 -0.390625 C 42.210938 -0.128906 41.832031 0 41.375 0 L 26 0 C 25.53125 0 25.175781 -0.128906 24.9375 -0.390625 C 24.707031 -0.660156 24.628906 -1.03125 24.703125 -1.5 L 27.8125 -26.609375 C 27.8125 -26.941406 27.675781 -27.109375 27.40625 -27.109375 L 22.6875 -27.109375 C 22.351562 -27.109375 22.1875 -26.941406 22.1875 -26.609375 L 19.078125 -1.5 C 19.015625 -1.03125 18.832031 -0.660156 18.53125 -0.390625 C 18.226562 -0.128906 17.875 0 17.46875 0 L 2.015625 0 C 1.609375 0 1.285156 -0.128906 1.046875 -0.390625 C 0.816406 -0.660156 0.734375 -1.03125 0.796875 -1.5 L 9.03125 -68.78125 C 9.101562 -69.25 9.289062 -69.613281 9.59375 -69.875 C 9.894531 -70.144531 10.242188 -70.28125 10.640625 -70.28125 L 26.109375 -70.28125 C 26.503906 -70.28125 26.816406 -70.144531 27.046875 -69.875 C 27.285156 -69.613281 27.375 -69.25 27.3125 -68.78125 L 24.296875 -43.78125 C 24.160156 -43.445312 24.296875 -43.28125 24.703125 -43.28125 L 29.421875 -43.28125 C 29.554688 -43.28125 29.671875 -43.328125 29.765625 -43.421875 C 29.867188 -43.523438 29.921875 -43.644531 29.921875 -43.78125 Z M 33.03125 -68.78125 "/></g></g></g><g fill="#75c7fb" fill-opacity="0.4"><g transform="translate(256.12944, 222.52062)"><g><path d="M 46.390625 -55.625 C 46.316406 -55.15625 46.128906 -54.785156 45.828125 -54.515625 C 45.535156 -54.253906 45.15625 -54.125 44.6875 -54.125 L 26 -54.125 C 25.664062 -54.125 25.5 -53.953125 25.5 -53.609375 L 24.296875 -43.78125 C 24.160156 -43.445312 24.296875 -43.28125 24.703125 -43.28125 L 34.4375 -43.28125 C 34.90625 -43.28125 35.253906 -43.144531 35.484375 -42.875 C 35.722656 -42.601562 35.8125 -42.234375 35.75 -41.765625 L 34.140625 -28.609375 C 33.941406 -27.609375 33.375 -27.109375 32.4375 -27.109375 L 22.6875 -27.109375 C 22.351562 -27.109375 22.1875 -26.941406 22.1875 -26.609375 L 20.984375 -16.671875 C 20.847656 -16.335938 20.984375 -16.171875 21.390625 -16.171875 L 40.0625 -16.171875 C 40.53125 -16.171875 40.878906 -16.035156 41.109375 -15.765625 C 41.347656 -15.492188 41.4375 -15.125 41.375 -14.65625 L 39.765625 -1.5 C 39.691406 -1.03125 39.503906 -0.660156 39.203125 -0.390625 C 38.898438 -0.128906 38.515625 0 38.046875 0 L 2.015625 0 C 1.609375 0 1.285156 -0.128906 1.046875 -0.390625 C 0.816406 -0.660156 0.734375 -1.03125 0.796875 -1.5 L 9.03125 -68.78125 C 9.101562 -69.25 9.289062 -69.613281 9.59375 -69.875 C 9.894531 -70.144531 10.242188 -70.28125 10.640625 -70.28125 L 46.6875 -70.28125 C 47.15625 -70.28125 47.503906 -70.144531 47.734375 -69.875 C 47.972656 -69.613281 48.0625 -69.25 48 -68.78125 Z M 46.390625 -55.625 "/></g></g></g><g fill="#75c7fb" fill-opacity="1"><g transform="translate(61.522429, 218.082883)"><g><path d="M 2.015625 0 C 1.609375 0 1.285156 -0.128906 1.046875 -0.390625 C 0.816406 -0.660156 0.734375 -1.03125 0.796875 -1.5 L 9.03125 -68.78125 C 9.101562 -69.25 9.289062 -69.613281 9.59375 -69.875 C 9.894531 -70.144531 10.242188 -70.28125 10.640625 -70.28125 L 26.109375 -70.28125 C 26.503906 -70.28125 26.816406 -70.144531 27.046875 -69.875 C 27.285156 -69.613281 27.375 -69.25 27.3125 -68.78125 L 19.078125 -1.5 C 19.015625 -1.03125 18.832031 -0.660156 18.53125 -0.390625 C 18.226562 -0.128906 17.875 0 17.46875 0 Z M 2.015625 0 "/></g></g></g><g fill="#75c7fb" fill-opacity="1"><g transform="translate(84.917069, 218.082883)"><g><path d="M 37.25 -68.78125 C 37.3125 -69.25 37.492188 -69.613281 37.796875 -69.875 C 38.097656 -70.144531 38.484375 -70.28125 38.953125 -70.28125 L 54.125 -70.28125 C 54.59375 -70.28125 54.941406 -70.144531 55.171875 -69.875 C 55.410156 -69.613281 55.492188 -69.25 55.421875 -68.78125 L 47.09375 -1.5 C 47.019531 -1.03125 46.847656 -0.660156 46.578125 -0.390625 C 46.316406 -0.128906 45.953125 0 45.484375 0 L 28.109375 0 C 27.304688 0 26.835938 -0.4375 26.703125 -1.3125 L 22.890625 -32.125 C 22.890625 -32.332031 22.820312 -32.4375 22.6875 -32.4375 C 22.550781 -32.4375 22.484375 -32.332031 22.484375 -32.125 L 18.875 -1.5 C 18.8125 -1.03125 18.628906 -0.660156 18.328125 -0.390625 C 18.023438 -0.128906 17.671875 0 17.265625 0 L 2.015625 0 C 1.609375 0 1.285156 -0.128906 1.046875 -0.390625 C 0.816406 -0.660156 0.734375 -1.03125 0.796875 -1.5 L 9.03125 -68.78125 C 9.101562 -69.25 9.289062 -69.613281 9.59375 -69.875 C 9.894531 -70.144531 10.242188 -70.28125 10.640625 -70.28125 L 27.8125 -70.28125 C 28.613281 -70.28125 29.082031 -69.847656 29.21875 -68.984375 L 33.140625 -37.953125 C 33.140625 -37.753906 33.203125 -37.6875 33.328125 -37.75 C 33.460938 -37.820312 33.566406 -37.921875 33.640625 -38.046875 Z M 37.25 -68.78125 "/></g></g></g><g fill="#75c7fb" fill-opacity="1"><g transform="translate(136.325024, 218.082883)"><g/></g></g><g fill="#75c7fb" fill-opacity="1"><g transform="translate(155.803817, 218.082883)"><g><path d="M 52.109375 -70.28125 C 52.515625 -70.28125 52.832031 -70.144531 53.0625 -69.875 C 53.300781 -69.613281 53.382812 -69.25 53.3125 -68.78125 L 51.703125 -55.625 C 51.640625 -55.15625 51.472656 -54.785156 51.203125 -54.515625 C 50.941406 -54.253906 50.578125 -54.125 50.109375 -54.125 L 38.453125 -54.125 C 38.117188 -54.125 37.953125 -53.953125 37.953125 -53.609375 L 31.53125 -1.5 C 31.457031 -1.03125 31.285156 -0.660156 31.015625 -0.390625 C 30.753906 -0.128906 30.390625 0 29.921875 0 L 14.5625 0 C 14.09375 0 13.738281 -0.128906 13.5 -0.390625 C 13.269531 -0.660156 13.1875 -1.03125 13.25 -1.5 L 19.671875 -53.609375 C 19.671875 -53.953125 19.503906 -54.125 19.171875 -54.125 L 7.9375 -54.125 C 7.46875 -54.125 7.113281 -54.253906 6.875 -54.515625 C 6.644531 -54.785156 6.5625 -55.15625 6.625 -55.625 L 8.234375 -68.78125 C 8.296875 -69.25 8.476562 -69.613281 8.78125 -69.875 C 9.082031 -70.144531 9.46875 -70.28125 9.9375 -70.28125 Z M 52.109375 -70.28125 "/></g></g></g><g fill="#75c7fb" fill-opacity="1"><g transform="translate(204.400406, 218.082883)"><g><path d="M 33.03125 -68.78125 C 33.101562 -69.25 33.269531 -69.613281 33.53125 -69.875 C 33.800781 -70.144531 34.171875 -70.28125 34.640625 -70.28125 L 50 -70.28125 C 50.46875 -70.28125 50.816406 -70.144531 51.046875 -69.875 C 51.285156 -69.613281 51.375 -69.25 51.3125 -68.78125 L 43.078125 -1.5 C 43.003906 -1.03125 42.816406 -0.660156 42.515625 -0.390625 C 42.210938 -0.128906 41.832031 0 41.375 0 L 26 0 C 25.53125 0 25.175781 -0.128906 24.9375 -0.390625 C 24.707031 -0.660156 24.628906 -1.03125 24.703125 -1.5 L 27.8125 -26.609375 C 27.8125 -26.941406 27.675781 -27.109375 27.40625 -27.109375 L 22.6875 -27.109375 C 22.351562 -27.109375 22.1875 -26.941406 22.1875 -26.609375 L 19.078125 -1.5 C 19.015625 -1.03125 18.832031 -0.660156 18.53125 -0.390625 C 18.226562 -0.128906 17.875 0 17.46875 0 L 2.015625 0 C 1.609375 0 1.285156 -0.128906 1.046875 -0.390625 C 0.816406 -0.660156 0.734375 -1.03125 0.796875 -1.5 L 9.03125 -68.78125 C 9.101562 -69.25 9.289062 -69.613281 9.59375 -69.875 C 9.894531 -70.144531 10.242188 -70.28125 10.640625 -70.28125 L 26.109375 -70.28125 C 26.503906 -70.28125 26.816406 -70.144531 27.046875 -69.875 C 27.285156 -69.613281 27.375 -69.25 27.3125 -68.78125 L 24.296875 -43.78125 C 24.160156 -43.445312 24.296875 -43.28125 24.703125 -43.28125 L 29.421875 -43.28125 C 29.554688 -43.28125 29.671875 -43.328125 29.765625 -43.421875 C 29.867188 -43.523438 29.921875 -43.644531 29.921875 -43.78125 Z M 33.03125 -68.78125 "/></g></g></g><g fill="#75c7fb" fill-opacity="1"><g transform="translate(251.691704, 218.082883)"><g><path d="M 46.390625 -55.625 C 46.316406 -55.15625 46.128906 -54.785156 45.828125 -54.515625 C 45.535156 -54.253906 45.15625 -54.125 44.6875 -54.125 L 26 -54.125 C 25.664062 -54.125 25.5 -53.953125 25.5 -53.609375 L 24.296875 -43.78125 C 24.160156 -43.445312 24.296875 -43.28125 24.703125 -43.28125 L 34.4375 -43.28125 C 34.90625 -43.28125 35.253906 -43.144531 35.484375 -42.875 C 35.722656 -42.601562 35.8125 -42.234375 35.75 -41.765625 L 34.140625 -28.609375 C 33.941406 -27.609375 33.375 -27.109375 32.4375 -27.109375 L 22.6875 -27.109375 C 22.351562 -27.109375 22.1875 -26.941406 22.1875 -26.609375 L 20.984375 -16.671875 C 20.847656 -16.335938 20.984375 -16.171875 21.390625 -16.171875 L 40.0625 -16.171875 C 40.53125 -16.171875 40.878906 -16.035156 41.109375 -15.765625 C 41.347656 -15.492188 41.4375 -15.125 41.375 -14.65625 L 39.765625 -1.5 C 39.691406 -1.03125 39.503906 -0.660156 39.203125 -0.390625 C 38.898438 -0.128906 38.515625 0 38.046875 0 L 2.015625 0 C 1.609375 0 1.285156 -0.128906 1.046875 -0.390625 C 0.816406 -0.660156 0.734375 -1.03125 0.796875 -1.5 L 9.03125 -68.78125 C 9.101562 -69.25 9.289062 -69.613281 9.59375 -69.875 C 9.894531 -70.144531 10.242188 -70.28125 10.640625 -70.28125 L 46.6875 -70.28125 C 47.15625 -70.28125 47.503906 -70.144531 47.734375 -69.875 C 47.972656 -69.613281 48.0625 -69.25 48 -68.78125 Z M 46.390625 -55.625 "/></g></g></g><g fill="#75c7fb" fill-opacity="0.4"><g transform="translate(299.397649, 222.52062)"><g/></g></g><g fill="#75c7fb" fill-opacity="1"><g transform="translate(294.959913, 218.082883)"><g/></g></g><g fill="#75c7fb" fill-opacity="0.4"><g transform="translate(102.147662, 302.770615)"><g><path d="M 2.015625 0 C 1.609375 0 1.285156 -0.128906 1.046875 -0.390625 C 0.816406 -0.660156 0.734375 -1.03125 0.796875 -1.5 L 9.03125 -68.78125 C 9.101562 -69.25 9.289062 -69.613281 9.59375 -69.875 C 9.894531 -70.144531 10.242188 -70.28125 10.640625 -70.28125 L 29.828125 -70.28125 C 35.773438 -70.28125 40.503906 -68.722656 44.015625 -65.609375 C 47.535156 -62.503906 49.296875 -58.335938 49.296875 -53.109375 C 49.296875 -52.515625 49.226562 -51.546875 49.09375 -50.203125 L 45.390625 -20.078125 C 44.921875 -16.128906 43.597656 -12.628906 41.421875 -9.578125 C 39.242188 -6.535156 36.394531 -4.175781 32.875 -2.5 C 29.363281 -0.832031 25.46875 0 21.1875 0 Z M 20.984375 -16.671875 C 20.847656 -16.335938 20.984375 -16.171875 21.390625 -16.171875 L 22.796875 -16.265625 C 23.867188 -16.328125 24.820312 -16.828125 25.65625 -17.765625 C 26.488281 -18.703125 27.039062 -19.910156 27.3125 -21.390625 L 30.625 -49 L 30.71875 -50.109375 C 30.71875 -51.378906 30.414062 -52.363281 29.8125 -53.0625 C 29.21875 -53.769531 28.414062 -54.125 27.40625 -54.125 L 26 -54.125 C 25.664062 -54.125 25.5 -53.953125 25.5 -53.609375 Z M 20.984375 -16.671875 "/></g></g></g><g fill="#75c7fb" fill-opacity="0.4"><g transform="translate(149.238151, 302.770615)"><g><path d="M 46.390625 -55.625 C 46.316406 -55.15625 46.128906 -54.785156 45.828125 -54.515625 C 45.535156 -54.253906 45.15625 -54.125 44.6875 -54.125 L 26 -54.125 C 25.664062 -54.125 25.5 -53.953125 25.5 -53.609375 L 24.296875 -43.78125 C 24.160156 -43.445312 24.296875 -43.28125 24.703125 -43.28125 L 34.4375 -43.28125 C 34.90625 -43.28125 35.253906 -43.144531 35.484375 -42.875 C 35.722656 -42.601562 35.8125 -42.234375 35.75 -41.765625 L 34.140625 -28.609375 C 33.941406 -27.609375 33.375 -27.109375 32.4375 -27.109375 L 22.6875 -27.109375 C 22.351562 -27.109375 22.1875 -26.941406 22.1875 -26.609375 L 20.984375 -16.671875 C 20.847656 -16.335938 20.984375 -16.171875 21.390625 -16.171875 L 40.0625 -16.171875 C 40.53125 -16.171875 40.878906 -16.035156 41.109375 -15.765625 C 41.347656 -15.492188 41.4375 -15.125 41.375 -14.65625 L 39.765625 -1.5 C 39.691406 -1.03125 39.503906 -0.660156 39.203125 -0.390625 C 38.898438 -0.128906 38.515625 0 38.046875 0 L 2.015625 0 C 1.609375 0 1.285156 -0.128906 1.046875 -0.390625 C 0.816406 -0.660156 0.734375 -1.03125 0.796875 -1.5 L 9.03125 -68.78125 C 9.101562 -69.25 9.289062 -69.613281 9.59375 -69.875 C 9.894531 -70.144531 10.242188 -70.28125 10.640625 -70.28125 L 46.6875 -70.28125 C 47.15625 -70.28125 47.503906 -70.144531 47.734375 -69.875 C 47.972656 -69.613281 48.0625 -69.25 48 -68.78125 Z M 46.390625 -55.625 "/></g></g></g><g fill="#75c7fb" fill-opacity="0.4"><g transform="translate(192.513203, 302.770615)"><g><path d="M 46.390625 -55.625 C 46.316406 -55.15625 46.128906 -54.785156 45.828125 -54.515625 C 45.535156 -54.253906 45.15625 -54.125 44.6875 -54.125 L 26 -54.125 C 25.664062 -54.125 25.5 -53.953125 25.5 -53.609375 L 24.296875 -43.78125 C 24.160156 -43.445312 24.296875 -43.28125 24.703125 -43.28125 L 34.4375 -43.28125 C 34.90625 -43.28125 35.253906 -43.144531 35.484375 -42.875 C 35.722656 -42.601562 35.8125 -42.234375 35.75 -41.765625 L 34.140625 -28.609375 C 33.941406 -27.609375 33.375 -27.109375 32.4375 -27.109375 L 22.6875 -27.109375 C 22.351562 -27.109375 22.1875 -26.941406 22.1875 -26.609375 L 20.984375 -16.671875 C 20.847656 -16.335938 20.984375 -16.171875 21.390625 -16.171875 L 40.0625 -16.171875 C 40.53125 -16.171875 40.878906 -16.035156 41.109375 -15.765625 C 41.347656 -15.492188 41.4375 -15.125 41.375 -14.65625 L 39.765625 -1.5 C 39.691406 -1.03125 39.503906 -0.660156 39.203125 -0.390625 C 38.898438 -0.128906 38.515625 0 38.046875 0 L 2.015625 0 C 1.609375 0 1.285156 -0.128906 1.046875 -0.390625 C 0.816406 -0.660156 0.734375 -1.03125 0.796875 -1.5 L 9.03125 -68.78125 C 9.101562 -69.25 9.289062 -69.613281 9.59375 -69.875 C 9.894531 -70.144531 10.242188 -70.28125 10.640625 -70.28125 L 46.6875 -70.28125 C 47.15625 -70.28125 47.503906 -70.144531 47.734375 -69.875 C 47.972656 -69.613281 48.0625 -69.25 48 -68.78125 Z M 46.390625 -55.625 "/></g></g></g><g fill="#75c7fb" fill-opacity="0.4"><g transform="translate(235.788255, 302.770615)"><g><path d="M 32.4375 -70.28125 C 37.789062 -70.28125 42.019531 -68.554688 45.125 -65.109375 C 48.238281 -61.660156 49.796875 -57.09375 49.796875 -51.40625 C 49.796875 -49.800781 49.726562 -48.5625 49.59375 -47.6875 C 49.0625 -43.40625 47.804688 -39.625 45.828125 -36.34375 C 43.859375 -33.0625 41.316406 -30.535156 38.203125 -28.765625 C 35.085938 -26.992188 31.65625 -26.109375 27.90625 -26.109375 L 22.390625 -26.109375 C 22.054688 -26.109375 21.890625 -25.941406 21.890625 -25.609375 L 18.875 -1.5 C 18.8125 -1.03125 18.628906 -0.660156 18.328125 -0.390625 C 18.023438 -0.128906 17.671875 0 17.265625 0 L 1.8125 0 C 1.40625 0 1.082031 -0.128906 0.84375 -0.390625 C 0.613281 -0.660156 0.535156 -1.03125 0.609375 -1.5 L 8.828125 -68.78125 C 8.898438 -69.25 9.085938 -69.613281 9.390625 -69.875 C 9.691406 -70.144531 10.039062 -70.28125 10.4375 -70.28125 Z M 25.5 -40.671875 C 26.976562 -40.671875 28.234375 -41.222656 29.265625 -42.328125 C 30.304688 -43.429688 30.957031 -45.085938 31.21875 -47.296875 C 31.289062 -47.691406 31.328125 -48.257812 31.328125 -49 C 31.328125 -50.675781 30.957031 -51.945312 30.21875 -52.8125 C 29.488281 -53.6875 28.484375 -54.125 27.203125 -54.125 L 25.796875 -54.125 C 25.460938 -54.125 25.296875 -53.953125 25.296875 -53.609375 L 23.796875 -41.171875 C 23.660156 -40.835938 23.796875 -40.671875 24.203125 -40.671875 Z M 25.5 -40.671875 "/></g></g></g><g fill="#ff3847" fill-opacity="1"><g transform="translate(97.709926, 298.332878)"><g><path d="M 2.015625 0 C 1.609375 0 1.285156 -0.128906 1.046875 -0.390625 C 0.816406 -0.660156 0.734375 -1.03125 0.796875 -1.5 L 9.03125 -68.78125 C 9.101562 -69.25 9.289062 -69.613281 9.59375 -69.875 C 9.894531 -70.144531 10.242188 -70.28125 10.640625 -70.28125 L 29.828125 -70.28125 C 35.773438 -70.28125 40.503906 -68.722656 44.015625 -65.609375 C 47.535156 -62.503906 49.296875 -58.335938 49.296875 -53.109375 C 49.296875 -52.515625 49.226562 -51.546875 49.09375 -50.203125 L 45.390625 -20.078125 C 44.921875 -16.128906 43.597656 -12.628906 41.421875 -9.578125 C 39.242188 -6.535156 36.394531 -4.175781 32.875 -2.5 C 29.363281 -0.832031 25.46875 0 21.1875 0 Z M 20.984375 -16.671875 C 20.847656 -16.335938 20.984375 -16.171875 21.390625 -16.171875 L 22.796875 -16.265625 C 23.867188 -16.328125 24.820312 -16.828125 25.65625 -17.765625 C 26.488281 -18.703125 27.039062 -19.910156 27.3125 -21.390625 L 30.625 -49 L 30.71875 -50.109375 C 30.71875 -51.378906 30.414062 -52.363281 29.8125 -53.0625 C 29.21875 -53.769531 28.414062 -54.125 27.40625 -54.125 L 26 -54.125 C 25.664062 -54.125 25.5 -53.953125 25.5 -53.609375 Z M 20.984375 -16.671875 "/></g></g></g><g fill="#ff3847" fill-opacity="1"><g transform="translate(144.800415, 298.332878)"><g><path d="M 46.390625 -55.625 C 46.316406 -55.15625 46.128906 -54.785156 45.828125 -54.515625 C 45.535156 -54.253906 45.15625 -54.125 44.6875 -54.125 L 26 -54.125 C 25.664062 -54.125 25.5 -53.953125 25.5 -53.609375 L 24.296875 -43.78125 C 24.160156 -43.445312 24.296875 -43.28125 24.703125 -43.28125 L 34.4375 -43.28125 C 34.90625 -43.28125 35.253906 -43.144531 35.484375 -42.875 C 35.722656 -42.601562 35.8125 -42.234375 35.75 -41.765625 L 34.140625 -28.609375 C 33.941406 -27.609375 33.375 -27.109375 32.4375 -27.109375 L 22.6875 -27.109375 C 22.351562 -27.109375 22.1875 -26.941406 22.1875 -26.609375 L 20.984375 -16.671875 C 20.847656 -16.335938 20.984375 -16.171875 21.390625 -16.171875 L 40.0625 -16.171875 C 40.53125 -16.171875 40.878906 -16.035156 41.109375 -15.765625 C 41.347656 -15.492188 41.4375 -15.125 41.375 -14.65625 L 39.765625 -1.5 C 39.691406 -1.03125 39.503906 -0.660156 39.203125 -0.390625 C 38.898438 -0.128906 38.515625 0 38.046875 0 L 2.015625 0 C 1.609375 0 1.285156 -0.128906 1.046875 -0.390625 C 0.816406 -0.660156 0.734375 -1.03125 0.796875 -1.5 L 9.03125 -68.78125 C 9.101562 -69.25 9.289062 -69.613281 9.59375 -69.875 C 9.894531 -70.144531 10.242188 -70.28125 10.640625 -70.28125 L 46.6875 -70.28125 C 47.15625 -70.28125 47.503906 -70.144531 47.734375 -69.875 C 47.972656 -69.613281 48.0625 -69.25 48 -68.78125 Z M 46.390625 -55.625 "/></g></g></g><g fill="#ff3847" fill-opacity="1"><g transform="translate(188.075467, 298.332878)"><g><path d="M 46.390625 -55.625 C 46.316406 -55.15625 46.128906 -54.785156 45.828125 -54.515625 C 45.535156 -54.253906 45.15625 -54.125 44.6875 -54.125 L 26 -54.125 C 25.664062 -54.125 25.5 -53.953125 25.5 -53.609375 L 24.296875 -43.78125 C 24.160156 -43.445312 24.296875 -43.28125 24.703125 -43.28125 L 34.4375 -43.28125 C 34.90625 -43.28125 35.253906 -43.144531 35.484375 -42.875 C 35.722656 -42.601562 35.8125 -42.234375 35.75 -41.765625 L 34.140625 -28.609375 C 33.941406 -27.609375 33.375 -27.109375 32.4375 -27.109375 L 22.6875 -27.109375 C 22.351562 -27.109375 22.1875 -26.941406 22.1875 -26.609375 L 20.984375 -16.671875 C 20.847656 -16.335938 20.984375 -16.171875 21.390625 -16.171875 L 40.0625 -16.171875 C 40.53125 -16.171875 40.878906 -16.035156 41.109375 -15.765625 C 41.347656 -15.492188 41.4375 -15.125 41.375 -14.65625 L 39.765625 -1.5 C 39.691406 -1.03125 39.503906 -0.660156 39.203125 -0.390625 C 38.898438 -0.128906 38.515625 0 38.046875 0 L 2.015625 0 C 1.609375 0 1.285156 -0.128906 1.046875 -0.390625 C 0.816406 -0.660156 0.734375 -1.03125 0.796875 -1.5 L 9.03125 -68.78125 C 9.101562 -69.25 9.289062 -69.613281 9.59375 -69.875 C 9.894531 -70.144531 10.242188 -70.28125 10.640625 -70.28125 L 46.6875 -70.28125 C 47.15625 -70.28125 47.503906 -70.144531 47.734375 -69.875 C 47.972656 -69.613281 48.0625 -69.25 48 -68.78125 Z M 46.390625 -55.625 "/></g></g></g><g fill="#ff3847" fill-opacity="1"><g transform="translate(231.350519, 298.332878)"><g><path d="M 32.4375 -70.28125 C 37.789062 -70.28125 42.019531 -68.554688 45.125 -65.109375 C 48.238281 -61.660156 49.796875 -57.09375 49.796875 -51.40625 C 49.796875 -49.800781 49.726562 -48.5625 49.59375 -47.6875 C 49.0625 -43.40625 47.804688 -39.625 45.828125 -36.34375 C 43.859375 -33.0625 41.316406 -30.535156 38.203125 -28.765625 C 35.085938 -26.992188 31.65625 -26.109375 27.90625 -26.109375 L 22.390625 -26.109375 C 22.054688 -26.109375 21.890625 -25.941406 21.890625 -25.609375 L 18.875 -1.5 C 18.8125 -1.03125 18.628906 -0.660156 18.328125 -0.390625 C 18.023438 -0.128906 17.671875 0 17.265625 0 L 1.8125 0 C 1.40625 0 1.082031 -0.128906 0.84375 -0.390625 C 0.613281 -0.660156 0.535156 -1.03125 0.609375 -1.5 L 8.828125 -68.78125 C 8.898438 -69.25 9.085938 -69.613281 9.390625 -69.875 C 9.691406 -70.144531 10.039062 -70.28125 10.4375 -70.28125 Z M 25.5 -40.671875 C 26.976562 -40.671875 28.234375 -41.222656 29.265625 -42.328125 C 30.304688 -43.429688 30.957031 -45.085938 31.21875 -47.296875 C 31.289062 -47.691406 31.328125 -48.257812 31.328125 -49 C 31.328125 -50.675781 30.957031 -51.945312 30.21875 -52.8125 C 29.488281 -53.6875 28.484375 -54.125 27.203125 -54.125 L 25.796875 -54.125 C 25.460938 -54.125 25.296875 -53.953125 25.296875 -53.609375 L 23.796875 -41.171875 C 23.660156 -40.835938 23.796875 -40.671875 24.203125 -40.671875 Z M 25.5 -40.671875 "/></g></g></g></svg>